<?xml version="1.0" encoding="utf-8"?>
<!-- Generator: Adobe Illustrator 23.0.2, SVG Export Plug-In . SVG Version: 6.00 Build 0)  -->
<svg version="1.1" xmlns="http://www.w3.org/2000/svg" xmlns:xlink="http://www.w3.org/1999/xlink" x="0px" y="0px"
	 viewBox="40 175 500 150" xml:space="preserve">
<style type="text/css">
	.st0{fill:#367436;}
	.st1{fill:#FFFFFF;}
	.st2{fill:#231F20;}
</style>
<g id="Layer_1">
</g>
<g id="Layer_2">
	<g>
		<path class="st0" d="M143.6,281.76c-0.59,0.29-1.22,0.44-1.88,0.44c-0.96,0-1.86-0.26-2.71-0.77c-0.85-0.52-1.46-1.25-1.82-2.21
			l-8.74-20.57H88.3l-8.74,20.57c-0.52,1.25-1.4,2.14-2.65,2.65c-1.25,0.52-2.51,0.48-3.76-0.11c-1.26-0.52-2.14-1.4-2.65-2.65
			c-0.52-1.25-0.48-2.51,0.11-3.76l9.95-23.56l23.34-54.64c0.37-0.96,0.96-1.7,1.77-2.21c0.81-0.52,1.73-0.77,2.77-0.77
			c0.96,0,1.84,0.26,2.65,0.77c0.81,0.52,1.4,1.26,1.77,2.21c5.6,13.13,11.17,26.16,16.7,39.1c5.53,12.94,11.1,25.97,16.7,39.1
			c0.51,1.26,0.51,2.51,0,3.76C145.74,280.36,144.85,281.24,143.6,281.76z M108.43,211.64L92.5,248.8h31.74L108.43,211.64z"/>
		<path class="st0" d="M167.16,228.45c1.18-1.03,2.49-1.82,3.93-2.38c1.44-0.55,2.89-0.83,4.37-0.83c3.61,0,6.58,0.89,8.9,2.65
			c2.32,1.77,4.11,4.31,5.37,7.63c0.29,0.74,0.4,1.51,0.33,2.32c-0.07,0.81-0.31,1.55-0.72,2.21c-0.41,0.66-0.96,1.2-1.66,1.6
			c-0.7,0.41-1.53,0.61-2.49,0.61c-0.81,0-1.53-0.18-2.16-0.55c-0.63-0.37-1.16-0.81-1.6-1.33c-0.37-0.44-0.68-0.9-0.94-1.38
			c-0.26-0.48-0.54-0.98-0.83-1.49c-0.52-0.81-1.09-1.47-1.72-1.99c-0.63-0.51-1.68-0.7-3.15-0.55c-0.96,0.08-1.88,0.37-2.77,0.89
			c-0.88,0.52-1.66,1.14-2.32,1.88c-0.66,0.74-1.2,1.57-1.6,2.49c-0.41,0.92-0.61,1.86-0.61,2.82v34.29c0,1.33-0.48,2.47-1.44,3.43
			c-0.96,0.96-2.1,1.44-3.43,1.44c-1.4,0-2.58-0.48-3.54-1.44c-0.96-0.96-1.44-2.1-1.44-3.43v-47.23c0-1.33,0.48-2.47,1.44-3.43
			c0.96-0.96,2.14-1.44,3.54-1.44c1.03,0,1.95,0.3,2.76,0.89C166.2,226.72,166.79,227.49,167.16,228.45z"/>
		<path class="st0" d="M226.66,235.08h-8.96v42.25c0,1.33-0.48,2.47-1.44,3.43c-0.96,0.96-2.14,1.44-3.54,1.44
			c-1.33,0-2.47-0.48-3.43-1.44c-0.96-0.96-1.44-2.1-1.44-3.43v-42.25h-9.07c-1.33,0-2.47-0.48-3.43-1.44
			c-0.96-0.96-1.44-2.1-1.44-3.43c0-1.4,0.48-2.58,1.44-3.54c0.96-0.96,2.1-1.44,3.43-1.44h9.07v-16.26c0-1.4,0.48-2.56,1.44-3.48
			c0.96-0.92,2.1-1.38,3.43-1.38c1.4,0,2.58,0.46,3.54,1.38c0.96,0.92,1.44,2.08,1.44,3.48v16.26h8.96c1.4,0,2.58,0.48,3.54,1.44
			c0.96,0.96,1.44,2.14,1.44,3.54c0,1.33-0.48,2.47-1.44,3.43C229.24,234.61,228.06,235.08,226.66,235.08z"/>
		<path class="st0" d="M286.06,204.67h-33.18v28.65h27.98c1.33,0,2.47,0.48,3.43,1.44c0.96,0.96,1.44,2.1,1.44,3.43
			c0,1.4-0.48,2.56-1.44,3.48c-0.96,0.92-2.1,1.38-3.43,1.38h-27.98v34.29c0,1.33-0.48,2.47-1.44,3.43
			c-0.96,0.96-2.1,1.44-3.43,1.44c-1.4,0-2.58-0.48-3.54-1.44c-0.96-0.96-1.44-2.1-1.44-3.43V199.8c0-1.33,0.48-2.47,1.44-3.43
			c0.96-0.96,2.14-1.44,3.54-1.44h38.05c1.4,0,2.58,0.48,3.54,1.44c0.96,0.96,1.44,2.1,1.44,3.43c0,1.4-0.48,2.56-1.44,3.48
			C288.64,204.21,287.46,204.67,286.06,204.67z"/>
		<path class="st0" d="M309.17,228.45c1.18-1.03,2.49-1.82,3.93-2.38c1.44-0.55,2.89-0.83,4.37-0.83c3.61,0,6.58,0.89,8.9,2.65
			c2.32,1.77,4.11,4.31,5.37,7.63c0.29,0.74,0.4,1.51,0.33,2.32c-0.07,0.81-0.31,1.55-0.72,2.21c-0.41,0.66-0.96,1.2-1.66,1.6
			c-0.7,0.41-1.53,0.61-2.49,0.61c-0.81,0-1.53-0.18-2.16-0.55c-0.63-0.37-1.16-0.81-1.6-1.33c-0.37-0.44-0.68-0.9-0.94-1.38
			c-0.26-0.48-0.54-0.98-0.83-1.49c-0.52-0.81-1.09-1.47-1.72-1.99c-0.63-0.51-1.68-0.7-3.15-0.55c-0.96,0.08-1.88,0.37-2.77,0.89
			c-0.88,0.52-1.66,1.14-2.32,1.88s-1.2,1.57-1.6,2.49c-0.41,0.92-0.61,1.86-0.61,2.82v34.29c0,1.33-0.48,2.47-1.44,3.43
			c-0.96,0.96-2.1,1.44-3.43,1.44c-1.4,0-2.58-0.48-3.54-1.44c-0.96-0.96-1.44-2.1-1.44-3.43v-47.23c0-1.33,0.48-2.47,1.44-3.43
			c0.96-0.96,2.14-1.44,3.54-1.44c1.03,0,1.95,0.3,2.76,0.89C308.21,226.72,308.8,227.49,309.17,228.45z"/>
		<path class="st0" d="M384.16,282.2c-6.05,0-11.72-1.14-17.03-3.43c-5.31-2.28-9.94-5.4-13.88-9.35
			c-3.95-3.94-7.06-8.57-9.35-13.88c-2.29-5.31-3.43-10.99-3.43-17.03c0-5.97,1.14-11.61,3.43-16.92c2.28-5.31,5.4-9.93,9.35-13.88
			c3.94-3.94,8.57-7.06,13.88-9.35c5.31-2.28,10.99-3.43,17.03-3.43c5.97,0,11.61,1.14,16.92,3.43c5.31,2.29,9.93,5.4,13.88,9.35
			c3.94,3.95,7.06,8.57,9.35,13.88s3.43,10.95,3.43,16.92c0,6.05-1.15,11.72-3.43,17.03s-5.4,9.94-9.35,13.88
			c-3.94,3.95-8.57,7.06-13.88,9.35C395.78,281.06,390.13,282.2,384.16,282.2z M384.16,204.67c-4.65,0-9.03,0.89-13.16,2.65
			c-4.13,1.77-7.74,4.19-10.84,7.25c-3.1,3.06-5.53,6.66-7.3,10.78c-1.77,4.13-2.65,8.52-2.65,13.16c0,4.65,0.89,9.03,2.65,13.16
			c1.77,4.13,4.2,7.74,7.3,10.84s6.71,5.53,10.84,7.3c4.13,1.77,8.52,2.65,13.16,2.65s9.03-0.89,13.16-2.65
			c4.13-1.77,7.72-4.2,10.78-7.3c3.06-3.1,5.47-6.71,7.24-10.84c1.77-4.13,2.65-8.52,2.65-13.16c0-4.65-0.88-9.03-2.65-13.16
			c-1.77-4.13-4.19-7.72-7.24-10.78c-3.06-3.06-6.66-5.47-10.78-7.25C393.19,205.55,388.81,204.67,384.16,204.67z"/>
		<path class="st0" d="M467.44,305.98c-2.43,0-4.85-0.31-7.24-0.94c-2.4-0.63-4.68-1.55-6.86-2.76c-2.17-1.22-4.17-2.69-5.97-4.42
			c-1.81-1.73-3.3-3.67-4.48-5.81c-0.15-0.37-0.3-0.76-0.44-1.16c-0.15-0.41-0.22-0.83-0.22-1.27c0-1.33,0.48-2.49,1.44-3.48
			c0.96-1,2.14-1.49,3.54-1.49c1.03,0,1.84,0.22,2.43,0.66c0.59,0.44,1.14,0.96,1.66,1.55c0.15,0.29,0.33,0.57,0.55,0.83
			c0.22,0.26,0.41,0.53,0.55,0.83l1,1.33c1.7,1.99,3.8,3.54,6.3,4.65c2.51,1.11,5.09,1.66,7.74,1.66c2.51,0,4.9-0.5,7.19-1.49
			c2.28-1,4.26-2.34,5.92-4.04c1.66-1.7,2.99-3.67,3.98-5.92c1-2.25,1.49-4.66,1.49-7.25v-2.32c-2.58,2.29-5.46,4.04-8.63,5.25
			c-3.17,1.22-6.49,1.82-9.95,1.82c-3.91,0-7.6-0.76-11.06-2.27c-3.47-1.51-6.49-3.56-9.07-6.14c-2.58-2.58-4.63-5.6-6.14-9.07
			c-1.51-3.46-2.27-7.15-2.27-11.06c0-3.91,0.76-7.58,2.27-11c1.51-3.43,3.56-6.43,6.14-9.01c2.58-2.58,5.6-4.63,9.07-6.14
			c3.46-1.51,7.15-2.27,11.06-2.27c3.47,0,6.78,0.61,9.95,1.82c3.17,1.22,6.05,2.93,8.63,5.14v-2.1c0-1.33,0.48-2.47,1.44-3.43
			c0.96-0.96,2.14-1.44,3.54-1.44c1.33,0,2.47,0.48,3.43,1.44c0.96,0.96,1.44,2.1,1.44,3.43v47.34c0,3.91-0.76,7.59-2.27,11.06
			c-1.51,3.46-3.56,6.49-6.14,9.07c-2.58,2.58-5.59,4.63-9.01,6.14C475.02,305.22,471.35,305.98,467.44,305.98z M467.44,235.08
			c-2.58,0-5,0.5-7.24,1.49c-2.25,1-4.22,2.32-5.92,3.98c-1.7,1.66-3.04,3.63-4.04,5.92c-0.99,2.29-1.49,4.68-1.49,7.19
			c0,2.58,0.5,5,1.49,7.25c1,2.25,2.34,4.22,4.04,5.92c1.7,1.7,3.67,3.04,5.92,4.04c2.25,1,4.66,1.49,7.24,1.49
			c2.51,0,4.9-0.5,7.19-1.49c2.28-1,4.26-2.34,5.92-4.04c1.66-1.7,2.99-3.67,3.98-5.92c1-2.25,1.49-4.66,1.49-7.25
			c0-2.51-0.5-4.9-1.49-7.19c-1-2.28-2.32-4.26-3.98-5.92c-1.66-1.66-3.63-2.99-5.92-3.98
			C472.35,235.58,469.95,235.08,467.44,235.08z"/>
	</g>
	<g>
		<path class="st0" d="M384.26,282.1c-6.05,0-11.72-1.14-17.03-3.43c-5.31-2.28-9.94-5.4-13.88-9.35s-7.06-8.57-9.35-13.88
			c-2.29-5.31-3.43-10.99-3.43-17.03c0-5.97,1.14-11.61,3.43-16.92c2.28-5.31,5.4-9.93,9.35-13.88s8.57-7.06,13.88-9.35
			c5.31-2.28,10.98-3.43,17.03-3.43c5.97,0,11.61,1.14,16.92,3.43c5.31,2.29,9.93,5.4,13.88,9.35s7.06,8.57,9.35,13.88
			c2.28,5.31,3.43,10.95,3.43,16.92c0,6.05-1.15,11.72-3.43,17.03c-2.28,5.31-5.4,9.94-9.35,13.88s-8.57,7.06-13.88,9.35
			C395.87,280.96,390.23,282.1,384.26,282.1z M384.26,204.57c-4.65,0-9.03,0.89-13.16,2.66s-7.74,4.18-10.84,7.24
			c-3.1,3.06-5.53,6.66-7.3,10.78c-1.77,4.13-2.65,8.52-2.65,13.16c0,4.65,0.89,9.03,2.65,13.16c1.77,4.13,4.2,7.74,7.3,10.84
			c3.1,3.1,6.71,5.53,10.84,7.3c4.13,1.77,8.52,2.65,13.16,2.65c4.64,0,9.03-0.89,13.16-2.65c4.13-1.77,7.72-4.2,10.78-7.3
			c3.06-3.1,5.47-6.71,7.24-10.84c1.77-4.13,2.65-8.52,2.65-13.16c0-4.64-0.88-9.03-2.65-13.16c-1.77-4.13-4.19-7.72-7.24-10.78
			c-3.06-3.06-6.66-5.47-10.78-7.24C393.29,205.46,388.9,204.57,384.26,204.57z"/>
	</g>
	<g>
		<g>
			<circle class="st0" cx="407.39" cy="203.02" r="16.01"/>
			<circle class="st1" cx="406.36" cy="207.89" r="8.46"/>
		</g>
		<path d="M406.82,201.51c-0.61,0-1.18,0.12-1.71,0.34c0.67,0.24,1.15,0.87,1.15,1.62c0,0.95-0.77,1.73-1.73,1.73
			c-0.8,0-1.47-0.55-1.66-1.29c-0.32,0.61-0.5,1.31-0.5,2.05c0,2.46,1.99,4.45,4.45,4.45s4.45-1.99,4.45-4.45
			S409.28,201.51,406.82,201.51z"/>
	</g>
	<g>
		<g>
			<circle class="st0" cx="364.74" cy="203.02" r="16.01"/>
			<circle class="st1" cx="363.7" cy="207.89" r="8.46"/>
		</g>
		<path d="M364.17,201.51c-0.61,0-1.18,0.12-1.71,0.34c0.67,0.24,1.15,0.87,1.15,1.62c0,0.95-0.77,1.73-1.73,1.73
			c-0.8,0-1.47-0.55-1.66-1.29c-0.32,0.61-0.5,1.31-0.5,2.05c0,2.46,1.99,4.45,4.45,4.45c2.46,0,4.45-1.99,4.45-4.45
			S366.62,201.51,364.17,201.51z"/>
	</g>
	<path class="st0" d="M430.02,281.97h-91.63c-2.64,0-4.78-2.14-4.78-4.78l0,0c0-2.64,2.14-4.78,4.78-4.78h91.63
		c2.64,0,4.78,2.14,4.78,4.78l0,0C434.8,279.83,432.66,281.97,430.02,281.97z"/>
	
		<ellipse transform="matrix(0.7137 -0.7005 0.7005 0.7137 -47.419 331.0249)" class="st2" cx="381.21" cy="223.52" rx="1.45" ry="3.72"/>
	
		<ellipse transform="matrix(0.7137 -0.7005 0.7005 0.7137 -44.5806 338.2291)" class="st2" cx="391.45" cy="223.65" rx="3.72" ry="1.45"/>
	<g>
		<path class="st2" d="M166.11,292.93h1.64l5.72,13.36h-2.12l-1.34-3.3h-6.36l-1.32,3.3h-2.11L166.11,292.93z M169.36,301.4
			l-2.49-6.13h-0.04l-2.53,6.13H169.36z"/>
		<path class="st2" d="M189.18,292.93h4.7c0.86,0,1.56,0.12,2.11,0.35c0.55,0.23,0.99,0.53,1.31,0.89c0.32,0.36,0.55,0.76,0.67,1.21
			c0.12,0.45,0.19,0.88,0.19,1.29c0,0.43-0.08,0.84-0.23,1.24c-0.15,0.4-0.37,0.75-0.65,1.08c-0.28,0.32-0.63,0.59-1.04,0.81
			c-0.41,0.22-0.86,0.35-1.37,0.41l3.79,6.1h-2.27l-3.4-5.89h-2.02v5.89h-1.81V292.93z M190.99,298.82h2.38
			c0.35,0,0.7-0.03,1.05-0.09c0.35-0.06,0.65-0.16,0.92-0.31c0.27-0.15,0.49-0.37,0.65-0.65c0.16-0.28,0.25-0.65,0.25-1.1
			c0-0.45-0.08-0.82-0.25-1.1c-0.16-0.28-0.38-0.5-0.65-0.65c-0.27-0.15-0.58-0.25-0.92-0.31c-0.35-0.06-0.69-0.08-1.05-0.08h-2.38
			V298.82z"/>
		<path class="st2" d="M217.13,294.63h-4.3v-1.7h10.42v1.7h-4.3v11.66h-1.81V294.63z"/>
		<path class="st2" d="M262.54,292.93h1.64l5.72,13.36h-2.11l-1.34-3.3h-6.36l-1.32,3.3h-2.11L262.54,292.93z M265.79,301.4
			l-2.49-6.13h-0.04l-2.53,6.13H265.79z"/>
		<path class="st2" d="M294.91,295.82c-0.38-0.49-0.86-0.87-1.43-1.13c-0.58-0.26-1.18-0.4-1.79-0.4c-0.75,0-1.44,0.14-2.05,0.42
			s-1.13,0.67-1.57,1.16c-0.44,0.49-0.77,1.07-1.01,1.73s-0.36,1.37-0.36,2.12c0,0.7,0.11,1.37,0.34,2
			c0.23,0.63,0.55,1.18,0.98,1.66c0.43,0.48,0.95,0.86,1.57,1.13c0.62,0.28,1.31,0.41,2.1,0.41c0.77,0,1.44-0.16,2.02-0.47
			c0.58-0.31,1.07-0.76,1.47-1.32l1.53,1.15c-0.1,0.14-0.28,0.34-0.53,0.59c-0.25,0.26-0.59,0.52-1,0.77
			c-0.41,0.26-0.92,0.49-1.5,0.68c-0.59,0.2-1.26,0.29-2.03,0.29c-1.06,0-2.01-0.2-2.86-0.6c-0.85-0.4-1.57-0.93-2.17-1.59
			s-1.05-1.39-1.37-2.22c-0.31-0.82-0.47-1.66-0.47-2.5c0-1.03,0.17-1.99,0.51-2.86c0.34-0.87,0.81-1.63,1.42-2.27
			c0.61-0.63,1.34-1.13,2.2-1.48c0.86-0.35,1.8-0.53,2.83-0.53c0.88,0,1.74,0.17,2.59,0.51c0.85,0.34,1.54,0.86,2.08,1.57
			L294.91,295.82z"/>
		<path class="st2" d="M317.05,292.93h1.64l5.72,13.36h-2.12l-1.34-3.3h-6.36l-1.32,3.3h-2.11L317.05,292.93z M320.3,301.4
			l-2.49-6.13h-0.04l-2.53,6.13H320.3z"/>
		<path class="st2" d="M339.81,292.93h4.66c0.94,0,1.77,0.11,2.48,0.32c0.71,0.21,1.33,0.5,1.85,0.86c0.52,0.36,0.96,0.77,1.3,1.24
			c0.35,0.47,0.62,0.94,0.82,1.43c0.2,0.49,0.35,0.98,0.43,1.47c0.09,0.49,0.13,0.94,0.13,1.36c0,0.86-0.16,1.68-0.47,2.48
			c-0.31,0.8-0.78,1.51-1.4,2.13c-0.62,0.62-1.38,1.12-2.29,1.5c-0.91,0.38-1.97,0.57-3.16,0.57h-4.36V292.93z M341.63,304.59h2.28
			c0.77,0,1.49-0.1,2.18-0.31c0.69-0.21,1.29-0.52,1.8-0.93c0.52-0.42,0.92-0.93,1.23-1.56c0.3-0.62,0.45-1.35,0.45-2.18
			c0-0.43-0.07-0.93-0.21-1.5s-0.4-1.12-0.78-1.63c-0.38-0.52-0.92-0.95-1.59-1.31c-0.68-0.36-1.56-0.54-2.64-0.54h-2.72V304.59z"/>
		<path class="st2" d="M368.07,292.93h8.63v1.7h-6.81v3.98h6.34v1.7h-6.34v4.29h7.15v1.7h-8.96V292.93z"/>
		<path class="st2" d="M393.43,292.93h2.7l4.25,10.12h0.08l4.21-10.12h2.7v13.36h-1.81v-10.99h-0.04L401,306.29h-1.21l-4.51-10.99
			h-0.04v10.99h-1.81V292.93z"/>
		<path class="st2" d="M427.79,300.59l-5.06-7.66h2.32l3.64,5.87l3.76-5.87h2.21l-5.06,7.66v5.7h-1.81V300.59z"/>
	</g>
</g>
</svg>
