<?xml version="1.0" encoding="utf-8"?>
<!-- Generator: Adobe Illustrator 23.0.2, SVG Export Plug-In . SVG Version: 6.00 Build 0)  -->
<svg version="1.1" xmlns="http://www.w3.org/2000/svg" xmlns:xlink="http://www.w3.org/1999/xlink" x="0px" y="0px"
	 viewBox="0 0 576 576" style="enable-background:new 0 0 576 576;" xml:space="preserve">
<style type="text/css">
	.st0{fill:#367436;}
	.st1{fill:#FFFFFF;}
	.st2{fill:#367436;}
</style>
<g id="Layer_1">
</g>
<g id="Layer_2">
	<g>
		<path class="st0" d="M139.84,292.6c-0.64,0.32-1.32,0.48-2.03,0.48c-1.04,0-2.01-0.28-2.93-0.84c-0.92-0.56-1.57-1.36-1.97-2.39
			l-9.44-22.23H80.07l-9.44,22.23c-0.56,1.36-1.52,2.31-2.87,2.87c-1.36,0.56-2.71,0.52-4.06-0.12c-1.36-0.56-2.31-1.51-2.87-2.87
			c-0.56-1.35-0.52-2.71,0.12-4.06l10.76-25.46l25.22-59.05c0.4-1.03,1.03-1.83,1.91-2.39c0.88-0.56,1.87-0.84,2.99-0.84
			c1.03,0,1.99,0.28,2.87,0.84c0.88,0.56,1.51,1.36,1.91,2.39c6.06,14.19,12.07,28.27,18.05,42.26
			c5.98,13.99,11.99,28.07,18.05,42.26c0.56,1.36,0.56,2.71,0,4.06C142.15,291.09,141.19,292.05,139.84,292.6z M101.82,216.82
			l-17.21,40.17h34.31L101.82,216.82z"/>
		<path class="st0" d="M165.3,234.99c1.27-1.12,2.69-1.97,4.24-2.57c1.55-0.6,3.13-0.9,4.72-0.9c3.9,0,7.11,0.96,9.62,2.87
			c2.51,1.91,4.44,4.66,5.8,8.25c0.32,0.8,0.44,1.63,0.36,2.51c-0.08,0.88-0.34,1.67-0.78,2.39c-0.44,0.72-1.04,1.3-1.79,1.73
			c-0.76,0.44-1.65,0.66-2.69,0.66c-0.88,0-1.65-0.2-2.33-0.6c-0.68-0.4-1.25-0.88-1.73-1.44c-0.4-0.48-0.74-0.97-1.02-1.49
			c-0.28-0.52-0.58-1.06-0.9-1.61c-0.56-0.88-1.18-1.59-1.85-2.15c-0.68-0.56-1.81-0.76-3.41-0.6c-1.04,0.08-2.03,0.4-2.99,0.96
			c-0.96,0.56-1.79,1.24-2.51,2.03s-1.3,1.69-1.73,2.69c-0.44,1-0.66,2.01-0.66,3.05v37.06c0,1.43-0.52,2.67-1.55,3.71
			c-1.04,1.04-2.27,1.55-3.71,1.55c-1.52,0-2.79-0.52-3.83-1.55c-1.04-1.03-1.55-2.27-1.55-3.71v-51.04c0-1.43,0.52-2.67,1.55-3.71
			c1.03-1.04,2.31-1.55,3.83-1.55c1.11,0,2.11,0.32,2.99,0.96C164.26,233.12,164.9,233.95,165.3,234.99z"/>
		<path class="st0" d="M229.61,242.16h-9.68v45.66c0,1.43-0.52,2.67-1.55,3.71c-1.04,1.04-2.31,1.55-3.82,1.55
			c-1.44,0-2.67-0.52-3.71-1.55c-1.04-1.03-1.55-2.27-1.55-3.71v-45.66h-9.8c-1.43,0-2.67-0.52-3.71-1.55
			c-1.04-1.04-1.55-2.27-1.55-3.71c0-1.51,0.52-2.79,1.55-3.82c1.03-1.04,2.27-1.55,3.71-1.55h9.8v-17.57
			c0-1.51,0.52-2.77,1.55-3.76c1.04-1,2.27-1.49,3.71-1.49c1.51,0,2.79,0.5,3.82,1.49c1.04,1,1.55,2.25,1.55,3.76v17.57h9.68
			c1.51,0,2.79,0.52,3.82,1.55c1.04,1.04,1.55,2.31,1.55,3.82c0,1.44-0.52,2.67-1.55,3.71
			C232.39,241.64,231.12,242.16,229.61,242.16z"/>
		<path class="st0" d="M293.8,209.29h-35.86v30.96h30.24c1.44,0,2.67,0.52,3.71,1.55c1.03,1.04,1.55,2.27,1.55,3.71
			c0,1.52-0.52,2.77-1.55,3.77c-1.04,1-2.27,1.49-3.71,1.49h-30.24v37.06c0,1.43-0.52,2.67-1.55,3.71
			c-1.04,1.04-2.27,1.55-3.71,1.55c-1.52,0-2.79-0.52-3.83-1.55c-1.04-1.03-1.55-2.27-1.55-3.71v-83.8c0-1.43,0.52-2.67,1.55-3.71
			c1.03-1.04,2.31-1.55,3.83-1.55h41.12c1.51,0,2.79,0.52,3.83,1.55c1.03,1.04,1.55,2.27,1.55,3.71c0,1.52-0.52,2.77-1.55,3.77
			C296.59,208.79,295.31,209.29,293.8,209.29z"/>
		<path class="st0" d="M318.78,234.99c1.27-1.12,2.69-1.97,4.24-2.57c1.55-0.6,3.13-0.9,4.72-0.9c3.9,0,7.11,0.96,9.62,2.87
			c2.51,1.91,4.44,4.66,5.8,8.25c0.32,0.8,0.44,1.63,0.36,2.51c-0.08,0.88-0.34,1.67-0.78,2.39c-0.44,0.72-1.04,1.3-1.79,1.73
			c-0.76,0.44-1.65,0.66-2.69,0.66c-0.88,0-1.65-0.2-2.33-0.6c-0.68-0.4-1.25-0.88-1.73-1.44c-0.4-0.48-0.74-0.97-1.02-1.49
			c-0.28-0.52-0.58-1.06-0.9-1.61c-0.56-0.88-1.18-1.59-1.85-2.15c-0.68-0.56-1.81-0.76-3.41-0.6c-1.04,0.08-2.03,0.4-2.99,0.96
			c-0.96,0.56-1.79,1.24-2.51,2.03s-1.3,1.69-1.73,2.69c-0.44,1-0.66,2.01-0.66,3.05v37.06c0,1.43-0.52,2.67-1.55,3.71
			c-1.04,1.04-2.27,1.55-3.71,1.55c-1.52,0-2.79-0.52-3.83-1.55c-1.04-1.03-1.55-2.27-1.55-3.71v-51.04c0-1.43,0.52-2.67,1.55-3.71
			c1.03-1.04,2.31-1.55,3.83-1.55c1.11,0,2.11,0.32,2.99,0.96C317.74,233.12,318.38,233.95,318.78,234.99z"/>
		<path class="st0" d="M399.83,293.08c-6.54,0-12.67-1.24-18.41-3.71c-5.74-2.47-10.74-5.84-15-10.1c-4.26-4.26-7.63-9.26-10.1-15
			c-2.47-5.74-3.71-11.87-3.71-18.41c0-6.45,1.23-12.55,3.71-18.29c2.47-5.74,5.84-10.74,10.1-15c4.26-4.26,9.26-7.63,15-10.1
			c5.74-2.47,11.87-3.71,18.41-3.71c6.45,0,12.55,1.24,18.29,3.71c5.74,2.47,10.74,5.84,15,10.1c4.26,4.26,7.63,9.26,10.1,15
			c2.47,5.74,3.71,11.83,3.71,18.29c0,6.53-1.24,12.67-3.71,18.41c-2.47,5.74-5.84,10.74-10.1,15c-4.26,4.26-9.26,7.63-15,10.1
			C412.38,291.85,406.28,293.08,399.83,293.08z M399.83,209.29c-5.02,0-9.76,0.96-14.23,2.87c-4.46,1.91-8.37,4.52-11.71,7.83
			c-3.35,3.31-5.98,7.19-7.89,11.65c-1.91,4.46-2.87,9.2-2.87,14.23c0,5.02,0.96,9.76,2.87,14.23c1.91,4.46,4.54,8.37,7.89,11.71
			c3.35,3.35,7.25,5.98,11.71,7.89c4.46,1.91,9.2,2.87,14.23,2.87s9.76-0.96,14.23-2.87c4.46-1.91,8.35-4.54,11.65-7.89
			c3.3-3.35,5.92-7.25,7.83-11.71c1.91-4.46,2.87-9.2,2.87-14.23c0-5.02-0.95-9.76-2.87-14.23c-1.91-4.46-4.52-8.35-7.83-11.65
			c-3.31-3.31-7.19-5.92-11.65-7.83C409.59,210.24,404.85,209.29,399.83,209.29z"/>
		<path class="st0" d="M489.84,318.78c-2.63,0-5.24-0.34-7.83-1.02c-2.59-0.68-5.06-1.67-7.41-2.99c-2.35-1.31-4.5-2.91-6.45-4.78
			c-1.95-1.87-3.57-3.97-4.84-6.28c-0.16-0.4-0.32-0.82-0.48-1.26c-0.16-0.44-0.24-0.9-0.24-1.37c0-1.43,0.52-2.69,1.56-3.76
			c1.04-1.08,2.31-1.61,3.82-1.61c1.11,0,1.99,0.24,2.63,0.72c0.64,0.48,1.24,1.03,1.79,1.67c0.16,0.32,0.36,0.62,0.6,0.9
			c0.24,0.28,0.44,0.58,0.6,0.9l1.08,1.43c1.83,2.15,4.1,3.83,6.81,5.02c2.71,1.2,5.5,1.79,8.37,1.79c2.71,0,5.3-0.54,7.77-1.61
			c2.47-1.08,4.6-2.53,6.4-4.36c1.79-1.83,3.23-3.97,4.3-6.4c1.08-2.43,1.61-5.04,1.61-7.83v-2.51c-2.79,2.47-5.9,4.36-9.33,5.68
			c-3.43,1.31-7.01,1.97-10.76,1.97c-4.23,0-8.21-0.82-11.95-2.45c-3.75-1.63-7.01-3.84-9.8-6.63c-2.79-2.79-5-6.06-6.63-9.8
			c-1.63-3.74-2.45-7.73-2.45-11.95c0-4.22,0.82-8.19,2.45-11.89c1.63-3.71,3.84-6.95,6.63-9.74c2.79-2.79,6.06-5,9.8-6.63
			c3.74-1.63,7.73-2.45,11.95-2.45c3.75,0,7.33,0.66,10.76,1.97c3.43,1.32,6.53,3.17,9.33,5.56v-2.27c0-1.43,0.52-2.67,1.55-3.71
			c1.04-1.04,2.31-1.55,3.82-1.55c1.44,0,2.67,0.52,3.71,1.55c1.03,1.04,1.55,2.27,1.55,3.71v51.16c0,4.22-0.82,8.21-2.45,11.95
			c-1.63,3.74-3.84,7.01-6.63,9.8c-2.79,2.79-6.04,5-9.74,6.63C498.03,317.97,494.06,318.78,489.84,318.78z M489.84,242.16
			c-2.79,0-5.4,0.54-7.83,1.61c-2.43,1.08-4.56,2.51-6.4,4.3c-1.83,1.79-3.29,3.93-4.36,6.4c-1.07,2.47-1.61,5.06-1.61,7.77
			c0,2.79,0.54,5.4,1.61,7.83c1.08,2.43,2.53,4.56,4.36,6.4c1.83,1.83,3.96,3.29,6.4,4.36c2.43,1.08,5.04,1.61,7.83,1.61
			c2.71,0,5.3-0.54,7.77-1.61c2.47-1.08,4.6-2.53,6.4-4.36c1.79-1.83,3.23-3.96,4.3-6.4c1.08-2.43,1.61-5.04,1.61-7.83
			c0-2.71-0.54-5.3-1.61-7.77c-1.08-2.47-2.51-4.6-4.3-6.4c-1.79-1.79-3.93-3.23-6.4-4.3C495.14,242.7,492.55,242.16,489.84,242.16z
			"/>
	</g>
	<g>
		<path class="st0" d="M400.19,292.8c-6.54,0-12.67-1.24-18.41-3.71c-5.74-2.47-10.74-5.84-15-10.1c-4.26-4.26-7.63-9.27-10.1-15
			c-2.47-5.74-3.71-11.87-3.71-18.41c0-6.45,1.23-12.55,3.71-18.29c2.47-5.74,5.84-10.74,10.1-15c4.26-4.26,9.27-7.63,15-10.1
			c5.74-2.47,11.87-3.71,18.41-3.71c6.45,0,12.55,1.24,18.29,3.71c5.74,2.47,10.74,5.84,15,10.1c4.26,4.26,7.63,9.26,10.1,15
			c2.47,5.74,3.71,11.84,3.71,18.29c0,6.53-1.24,12.67-3.71,18.41c-2.47,5.74-5.84,10.74-10.1,15c-4.26,4.26-9.26,7.63-15,10.1
			C412.75,291.56,406.65,292.8,400.19,292.8z M400.19,209c-5.02,0-9.76,0.96-14.23,2.87c-4.46,1.91-8.37,4.52-11.71,7.83
			c-3.35,3.31-5.98,7.19-7.89,11.66c-1.91,4.46-2.87,9.2-2.87,14.22c0,5.02,0.96,9.76,2.87,14.23c1.91,4.46,4.54,8.37,7.89,11.71
			c3.35,3.35,7.25,5.98,11.71,7.89c4.46,1.91,9.2,2.87,14.23,2.87c5.02,0,9.76-0.96,14.22-2.87c4.46-1.91,8.35-4.54,11.66-7.89
			c3.3-3.35,5.92-7.25,7.83-11.71c1.91-4.46,2.87-9.2,2.87-14.23c0-5.02-0.95-9.76-2.87-14.22c-1.91-4.46-4.52-8.35-7.83-11.66
			c-3.31-3.31-7.19-5.92-11.66-7.83C409.95,209.96,405.21,209,400.19,209z"/>
	</g>
	<g>
		<g>
			<circle class="st0" cx="367.76" cy="202.65" r="17.3"/>
			<circle class="st1" cx="362.49" cy="203.77" r="9.14"/>
		</g>
		<path d="M359.77,203.27c0-0.65,0.13-1.28,0.37-1.85c0.26,0.72,0.94,1.25,1.75,1.25c1.03,0,1.87-0.84,1.87-1.87
			c0-0.87-0.59-1.59-1.39-1.8c0.66-0.34,1.41-0.54,2.21-0.54c2.66,0,4.81,2.15,4.81,4.81c0,2.66-2.15,4.81-4.81,4.81
			C361.92,208.08,359.77,205.93,359.77,203.27z"/>
	</g>
	<path class="st0" d="M449.42,293.11h-98.57c-2.98,0-5.4-2.42-5.4-5.4l0,0c0-2.98,2.42-5.4,5.4-5.4h98.57c2.98,0,5.4,2.42,5.4,5.4
		l0,0C454.82,290.7,452.4,293.11,449.42,293.11z"/>
	
		<ellipse transform="matrix(0.7137 -0.7005 0.7005 0.7137 -47.1039 343.7222)" class="st2" cx="396.9" cy="229.48" rx="1.56" ry="4.02"/>
	
		<ellipse transform="matrix(0.7137 -0.7005 0.7005 0.7137 -44.0362 351.5083)" class="st2" cx="407.96" cy="229.62" rx="4.02" ry="1.56"/>
	<g>
		<path class="st2" d="M161.36,305.68h1.79l6.25,14.59h-2.31l-1.46-3.61h-6.94l-1.44,3.61h-2.31L161.36,305.68z M164.9,314.93
			l-2.72-6.7h-0.04l-2.76,6.7H164.9z"/>
		<path class="st2" d="M186.54,305.68h5.13c0.94,0,1.7,0.13,2.31,0.38c0.61,0.25,1.08,0.58,1.43,0.97c0.35,0.39,0.6,0.83,0.73,1.32
			c0.14,0.49,0.21,0.96,0.21,1.41c0,0.47-0.08,0.92-0.25,1.35c-0.16,0.43-0.4,0.82-0.71,1.17c-0.31,0.35-0.69,0.65-1.13,0.89
			c-0.45,0.24-0.94,0.39-1.49,0.44l4.14,6.66h-2.47l-3.71-6.43h-2.21v6.43h-1.98V305.68z M188.52,312.11h2.6
			c0.39,0,0.77-0.03,1.14-0.09c0.38-0.06,0.71-0.17,1.01-0.34c0.3-0.17,0.53-0.4,0.71-0.71c0.18-0.31,0.27-0.71,0.27-1.21
			c0-0.49-0.09-0.9-0.27-1.21c-0.18-0.31-0.41-0.55-0.71-0.71c-0.3-0.16-0.63-0.28-1.01-0.34c-0.38-0.06-0.76-0.09-1.14-0.09h-2.6
			V312.11z"/>
		<path class="st2" d="M217.06,307.53h-4.7v-1.85h11.37v1.85h-4.7v12.74h-1.98V307.53z"/>
		<path class="st2" d="M266.64,305.68h1.79l6.24,14.59h-2.31l-1.46-3.61h-6.95l-1.44,3.61h-2.31L266.64,305.68z M270.19,314.93
			l-2.72-6.7h-0.04l-2.76,6.7H270.19z"/>
		<path class="st2" d="M301.99,308.83c-0.41-0.54-0.94-0.95-1.57-1.24c-0.63-0.29-1.28-0.43-1.96-0.43c-0.82,0-1.57,0.15-2.24,0.46
			c-0.67,0.31-1.24,0.73-1.71,1.27c-0.48,0.53-0.84,1.16-1.1,1.89c-0.26,0.72-0.39,1.49-0.39,2.32c0,0.77,0.12,1.5,0.37,2.18
			c0.25,0.69,0.6,1.29,1.07,1.81c0.47,0.52,1.04,0.94,1.71,1.24c0.67,0.3,1.44,0.45,2.29,0.45c0.84,0,1.57-0.17,2.21-0.51
			c0.63-0.34,1.17-0.83,1.61-1.44l1.67,1.26c-0.11,0.15-0.3,0.37-0.58,0.65c-0.28,0.28-0.64,0.56-1.09,0.85
			c-0.45,0.28-1,0.53-1.64,0.74c-0.64,0.21-1.38,0.32-2.22,0.32c-1.15,0-2.2-0.22-3.12-0.66c-0.93-0.44-1.72-1.02-2.37-1.73
			c-0.65-0.71-1.15-1.52-1.49-2.42c-0.34-0.9-0.51-1.81-0.51-2.73c0-1.13,0.19-2.17,0.56-3.12c0.37-0.95,0.89-1.78,1.55-2.47
			c0.67-0.69,1.47-1.23,2.4-1.62c0.93-0.39,1.97-0.58,3.09-0.58c0.96,0,1.91,0.18,2.83,0.56c0.93,0.37,1.69,0.94,2.28,1.71
			L301.99,308.83z"/>
		<path class="st2" d="M326.16,305.68h1.79l6.25,14.59h-2.31l-1.46-3.61h-6.94l-1.44,3.61h-2.31L326.16,305.68z M329.7,314.93
			l-2.72-6.7h-0.04l-2.76,6.7H329.7z"/>
		<path class="st2" d="M351.01,305.68h5.09c1.03,0,1.93,0.12,2.71,0.35c0.77,0.23,1.45,0.55,2.02,0.94
			c0.57,0.39,1.04,0.84,1.42,1.35c0.38,0.51,0.68,1.03,0.9,1.57c0.22,0.54,0.38,1.07,0.47,1.61c0.1,0.54,0.14,1.03,0.14,1.48
			c0,0.93-0.17,1.84-0.51,2.71c-0.34,0.87-0.85,1.65-1.53,2.33c-0.67,0.68-1.51,1.23-2.5,1.64c-1,0.41-2.15,0.62-3.45,0.62h-4.76
			V305.68z M352.99,318.41h2.49c0.84,0,1.63-0.11,2.38-0.34c0.75-0.23,1.41-0.57,1.97-1.02c0.56-0.45,1.01-1.02,1.34-1.7
			c0.33-0.68,0.5-1.47,0.5-2.38c0-0.47-0.08-1.01-0.23-1.64c-0.15-0.63-0.44-1.22-0.86-1.78c-0.42-0.56-1-1.04-1.74-1.43
			c-0.74-0.39-1.7-0.59-2.88-0.59h-2.97V318.41z"/>
		<path class="st2" d="M381.87,305.68h9.42v1.85h-7.44v4.35h6.92v1.85h-6.92v4.68h7.81v1.85h-9.79V305.68z"/>
		<path class="st2" d="M409.56,305.68h2.95l4.64,11.05h0.08l4.6-11.05h2.95v14.59h-1.98v-11.99h-0.04l-4.93,11.99h-1.32l-4.93-11.99
			h-0.04v11.99h-1.98V305.68z"/>
		<path class="st2" d="M447.07,314.04l-5.52-8.37h2.53l3.98,6.41l4.1-6.41h2.41l-5.52,8.37v6.22h-1.98V314.04z"/>
	</g>
	<g>
		<g>
			<circle class="st0" cx="436.5" cy="205.36" r="17.3"/>
			<circle class="st1" cx="441.77" cy="206.48" r="9.14"/>
		</g>
		<path d="M444.49,205.98c0-0.65-0.13-1.28-0.37-1.85c-0.26,0.72-0.94,1.25-1.75,1.25c-1.03,0-1.87-0.84-1.87-1.87
			c0-0.87,0.59-1.59,1.39-1.8c-0.66-0.34-1.41-0.54-2.21-0.54c-2.66,0-4.81,2.15-4.81,4.81c0,2.66,2.15,4.81,4.81,4.81
			S444.49,208.63,444.49,205.98z"/>
	</g>
</g>
</svg>
